HIERARCHY
ROOT hip
{
	OFFSET 0.000000 0.000000 0.000000 
	CHANNELS 6 Xposition Yposition Zposition Xrotation Zrotation Yrotation
	JOINT abdomen
	{
		OFFSET 0.000000 3.402643 0.000000 
		CHANNELS 3 Xrotation Zrotation Yrotation
		JOINT chest
		{
			OFFSET 0.000000 8.438565 -0.680529 
			CHANNELS 3 Xrotation Zrotation Yrotation
			JOINT neck
			{
				OFFSET 0.000000 10.207942 -0.272212 
				CHANNELS 3 Xrotation Zrotation Yrotation
				JOINT head
				{
					OFFSET 0.000000 3.130431 0.000000 
					CHANNELS 3 Xrotation Zrotation Yrotation
					End Site
					{
						OFFSET 0.000000 3.130435 0.000000 
					}
				}
			}
			JOINT lCollar
			{
				OFFSET 3.470700 6.669187 -0.816635 
				CHANNELS 3 Yrotation Zrotation Xrotation
				JOINT lShldr
				{
					OFFSET 3.198488 0.000000 0.000000 
					CHANNELS 3 Zrotation Yrotation Xrotation
					JOINT lForeArm
					{
						OFFSET 10.139888 0.000000 0.000000 
						CHANNELS 3 Yrotation Zrotation Xrotation
						JOINT lHand
						{
							OFFSET 8.370511 0.000000 0.000000 
							CHANNELS 3 Zrotation Yrotation Xrotation
							End Site
							{
								OFFSET 4.083176 0.000000 0.000000 
							}
						}
					}
				}
			}
			JOINT rCollar
			{
				OFFSET -3.470700 6.669187 -0.816635 
				CHANNELS 3 Yrotation Zrotation Xrotation
				JOINT rShldr
				{
					OFFSET -3.198488 0.000000 0.000000 
					CHANNELS 3 Zrotation Yrotation Xrotation
					JOINT rForeArm
					{
						OFFSET -10.139888 0.000000 0.000000 
						CHANNELS 3 Yrotation Zrotation Xrotation
						JOINT rHand
						{
							OFFSET -8.370511 0.000000 0.000000 
							CHANNELS 3 Zrotation Yrotation Xrotation
							End Site
							{
								OFFSET -4.083176 0.000000 0.000000 
							}
						}
					}
				}
			}
		}
	}
	JOINT lThigh
	{
		OFFSET 5.308129 -1.633274 1.361059 
		CHANNELS 3 Xrotation Zrotation Yrotation
		JOINT lShin
		{
			OFFSET -2.041588 -20.007561 0.000000 
			CHANNELS 3 Xrotation Zrotation Yrotation
			JOINT lFoot
			{
				OFFSET 0.000000 -19.190928 -1.224953 
				CHANNELS 3 Xrotation Yrotation Zrotation
				End Site
				{
					OFFSET 0.000000 -2.449906 4.627600 
				}
			}
		}
	}
	JOINT rThigh
	{
		OFFSET -5.308129 -1.633274 1.361059 
		CHANNELS 3 Xrotation Zrotation Yrotation
		JOINT rShin
		{
			OFFSET 2.041588 -20.007561 0.000000 
			CHANNELS 3 Xrotation Zrotation Yrotation
			JOINT rFoot
			{
				OFFSET 0.000000 -19.190928 -1.224953 
				CHANNELS 3 Xrotation Yrotation Zrotation
				End Site
				{
					OFFSET 0.000000 -2.449906 4.627600 
				}
			}
		}
	}
}
MOTION
Frames: 20
Frame Time: 0.033333
-0.016288 49.346771 -1.808054 8.401997 -1.661670 -4.161592 0.000000 0.000000 0.000000 -24.743603 3.016066 0.642530 33.593601 3.531842 -0.906449 -30.664089 -0.060484 0.664682 -3.519355 9.157742 6.311733 7.835995 14.942685 -8.472991 -14.781343 5.077932 9.500807 -1.290402 14.159950 -8.675810 3.090466 -14.082293 8.028685 -4.913475 -5.479654 5.159809 2.230929 -8.039201 24.232874 -13.917024 -8.675195 -8.996102 -11.460699 10.990477 10.212874 15.490358 -7.824058 -10.785183 -3.267697 0.400845 -3.920950 -10.082952 -4.703859 -9.383565 7.234221 4.492334 -7.331936 -0.260739 -0.130742 1.079068 
-0.029821 49.347240 -1.810041 8.499820 -1.690224 -4.090631 0.000000 0.000000 0.000000 -25.006912 2.983091 0.562910 33.694496 3.958117 -1.003794 -30.459635 -0.303303 0.734439 -3.519355 9.157742 6.311733 8.124483 14.638996 -8.387033 -14.190552 4.911395 9.717694 -1.218944 14.012056 -8.667825 3.090466 -14.082293 8.028685 -4.908722 -5.511110 5.393516 2.184221 -7.929138 23.706606 -13.879894 -8.286140 -9.013391 -11.572004 11.044512 10.208551 15.511095 -7.795043 -10.949135 -3.281902 0.404649 -3.898373 -10.162260 -4.675359 -9.386294 7.220509 4.516280 -7.399758 -0.216388 -0.140181 1.106704 
-0.049551 49.341560 -1.818606 8.607462 -1.728371 -4.031287 0.000000 0.000000 0.000000 -25.201574 2.942990 0.510766 33.696457 3.994359 -1.005734 -30.304012 -0.425561 0.802444 -3.519355 9.157742 6.311733 8.277555 14.621277 -8.313271 -14.164346 4.910581 9.833123 -1.471390 13.976858 -8.662651 3.090466 -14.082293 8.028685 -4.833272 -5.557169 5.592467 2.172491 -7.911450 23.657753 -13.827348 -8.899864 -8.985786 -11.756680 11.082460 10.171891 15.594304 -7.754922 -10.981643 -3.272222 0.400600 -3.963295 -10.272649 -4.628510 -9.380681 7.215354 4.549665 -7.574517 -0.242757 -0.137674 1.107742 
-0.066253 49.348190 -1.823858 8.617276 -1.737981 -3.974452 0.000000 0.000000 0.000000 -25.307829 2.887420 0.461904 33.782619 3.776314 -0.958352 -30.449720 -0.265427 0.742687 -3.519355 9.157742 6.311733 8.372097 14.599640 -8.147092 -14.059262 4.870987 9.653197 -1.092969 13.763230 -8.637371 3.090466 -14.082293 8.028685 -4.778366 -5.581135 5.807906 2.124126 -7.801707 23.463221 -14.160755 -8.707108 -9.001929 -11.698380 11.131663 10.260236 15.456043 -7.861759 -11.037765 -3.233856 0.400910 -3.867776 -10.279348 -4.616618 -9.371041 7.201982 4.556166 -7.662684 -0.238908 -0.137884 1.118095 
-0.076331 49.352913 -1.832044 8.617366 -1.757292 -3.928550 0.000000 0.000000 0.000000 -25.355867 2.850957 0.446853 33.752968 3.570422 -0.976940 -30.430105 -0.242743 0.675318 -3.519355 9.157742 6.311733 8.401100 14.616748 -8.054561 -14.065585 4.876261 9.870256 -1.081266 13.952311 -8.653369 3.090466 -14.082293 8.028685 -4.695177 -5.587976 5.881147 2.102063 -7.764606 23.424162 -13.971541 -8.416366 -9.010217 -11.707427 11.140457 10.230098 15.454946 -7.815398 -11.081335 -3.234974 0.378031 -3.887782 -10.278159 -4.596571 -9.371319 7.204929 4.570527 -7.691309 -0.233371 -0.141983 1.106075 
-0.090667 49.345345 -1.833889 8.588236 -1.796052 -3.953017 0.000000 0.000000 0.000000 -25.375835 2.868144 0.476586 33.906075 3.691724 -0.984393 -30.479456 -0.363862 0.754497 -3.519355 9.157742 6.311733 8.341166 14.644537 -7.977318 -14.068498 4.884105 9.959600 -1.249820 13.415806 -8.610259 3.090466 -14.082293 8.028685 -4.672222 -5.600797 5.983914 2.114222 -7.810773 23.841898 -13.371844 -8.524777 -8.986340 -11.698913 11.200708 10.267761 15.474620 -7.815166 -11.180553 -3.219552 0.367005 -3.902745 -10.249934 -4.538406 -9.391498 7.203697 4.587064 -7.631989 -0.176071 -0.127146 1.122020 
-0.102685 49.347713 -1.836966 8.607684 -1.776649 -3.989768 0.000000 0.000000 0.000000 -25.327379 2.886955 0.499983 33.565037 3.734624 -0.983470 -30.255276 -0.441062 0.814335 -3.519355 9.157742 6.311733 8.083816 14.740376 -8.127803 -14.145778 4.924034 10.196422 -2.102067 11.866402 -8.496145 3.090466 -14.082293 8.028685 -4.678347 -5.629601 5.928997 2.100643 -7.795380 23.715021 -13.481614 -8.667288 -8.982297 -11.764176 11.206381 10.245131 15.565128 -7.791089 -11.050718 -3.298040 0.391776 -3.903874 -10.287370 -4.537589 -9.343505 7.214427 4.570329 -7.612535 -0.138452 -0.145175 1.135962 
-0.113568 49.352913 -1.836679 8.558833 -1.776877 -4.076145 0.000000 0.000000 0.000000 -25.318666 2.931325 0.626110 33.847836 3.699844 -1.002016 -30.450497 -0.424682 0.774234 -3.519355 9.157742 6.311733 8.009238 14.718115 -7.904453 -14.055490 4.890188 10.185295 -1.581921 12.304047 -8.525936 3.090466 -14.082293 8.028685 -4.669094 -5.589312 5.932690 2.082822 -7.744431 23.471882 -13.643433 -8.570339 -8.990851 -11.658653 11.228372 10.267854 15.490741 -7.814348 -10.968726 -3.249681 0.399678 -3.900157 -10.251752 -4.500571 -9.333935 7.203777 4.548004 -7.546088 -0.134284 -0.139909 1.158867 
-0.123269 49.350555 -1.843540 8.558788 -1.767220 -4.103988 0.000000 0.000000 0.000000 -25.475721 2.953984 0.703199 34.939083 3.760468 -0.961815 -31.143602 -0.375430 0.771182 -3.519355 9.157742 6.311733 7.940529 14.621359 -7.713985 -13.970792 4.848959 10.035879 -0.545932 14.086029 -8.654905 3.090466 -14.082293 8.028685 -4.699892 -5.482898 6.103333 2.096902 -7.779609 23.587912 -13.857245 -8.824975 -8.983194 -11.606791 11.224245 10.278774 15.410869 -7.823706 -10.932385 -3.194819 0.392551 -3.913068 -10.271684 -4.471840 -9.266756 7.213954 4.501394 -7.625555 -0.153826 -0.139329 1.190488 
-0.134386 49.346294 -1.845859 8.558879 -1.786534 -4.155724 0.000000 0.000000 0.000000 -25.409266 3.035049 0.766730 34.655338 3.765965 -0.998617 -30.948458 -0.406611 0.755711 -3.519355 9.157742 6.311733 7.657015 14.709995 -8.024583 -14.119837 4.899776 10.014229 -1.014139 13.833408 -8.647799 3.090466 -14.082293 8.028685 -4.786301 -5.506834 6.084436 2.109221 -7.806760 23.645933 -13.907958 -9.038493 -8.972090 -11.637403 11.284662 10.325019 15.486986 -7.820179 -11.016642 -3.226438 0.391275 -3.903371 -10.277038 -4.420053 -9.238314 7.222092 4.488313 -7.605877 -0.265656 -0.127309 1.132648 
-0.141011 49.354809 -1.839897 8.510164 -1.815737 -4.168303 0.000000 0.000000 0.000000 -25.303743 3.117203 0.792987 34.669407 3.840656 -1.023151 -30.928757 -0.376598 0.730710 -3.519355 9.157742 6.311733 7.447727 14.714292 -8.078694 -14.112700 4.908331 10.094090 -1.291919 13.163302 -8.595247 3.090466 -14.082293 8.028685 -4.932819 -5.498201 6.087873 2.132210 -7.842709 23.725374 -13.731126 -9.025160 -8.972105 -11.540047 11.324007 10.356410 15.419552 -7.872448 -10.976520 -3.197228 0.395477 -3.901354 -10.213902 -4.374400 -9.218503 7.215933 4.481683 -7.646011 -0.198766 -0.143460 1.220381 
-0.146166 49.354340 -1.846095 8.471267 -1.854558 -4.250945 0.000000 0.000000 0.000000 -25.160322 3.244706 0.840586 34.631840 3.873435 -1.013694 -30.987394 -0.383805 0.747084 -3.519355 9.157742 6.311733 7.201797 14.748298 -8.206188 -14.130096 4.955277 10.631053 -1.685721 11.658220 -8.481943 3.090466 -14.082293 8.028685 -5.054453 -5.522557 6.007526 2.173188 -7.910591 23.687031 -13.837080 -8.605608 -9.001009 -11.523786 11.426179 10.440613 15.533146 -7.909750 -10.964304 -3.233832 0.391210 -3.924551 -10.200023 -4.323182 -9.160193 7.205144 4.461641 -7.628216 -0.131649 -0.133607 1.265742 
-0.146404 49.353870 -1.869468 8.529569 -1.786671 -4.232935 0.000000 0.000000 0.000000 -25.158693 3.182832 0.889130 34.500340 3.600252 -1.060161 -30.850004 -0.233754 0.573230 -3.519355 9.157742 6.311733 7.111506 14.807318 -8.426370 -14.307516 4.972036 10.283926 -0.843696 13.551314 -8.626453 3.090466 -14.082293 8.028685 -5.120052 -5.510720 5.963769 2.197935 -7.954568 23.824598 -13.852699 -8.932742 -8.984154 -11.647683 11.304893 10.304524 15.535709 -7.790943 -10.911548 -3.190014 0.403495 -3.971892 -10.310029 -4.383410 -9.181802 7.219572 4.456758 -7.607347 -0.191638 -0.142944 1.199662 
-0.146072 49.343456 -1.877134 8.519753 -1.777059 -4.260481 0.000000 0.000000 0.000000 -25.129822 3.201278 0.950836 34.782230 3.739564 -1.071747 -30.977671 -0.391386 0.665350 -3.519355 9.157742 6.311733 7.005313 14.758331 -8.510980 -14.255646 4.956804 10.208804 -0.070211 13.885795 -8.638878 3.090466 -14.082293 8.028685 -5.181270 -5.480872 5.847053 2.230677 -8.000462 23.883900 -13.914427 -8.694557 -8.997577 -11.728384 11.240059 10.167577 15.660702 -7.666035 -10.803817 -3.214622 0.402528 -4.014722 -10.292396 -4.394440 -9.200774 7.214584 4.480487 -7.577793 -0.330979 -0.139963 1.127997 
-0.144134 49.353870 -1.881345 8.539115 -1.738339 -4.225988 0.000000 0.000000 0.000000 -25.051142 3.185627 0.953691 34.376839 3.851253 -1.127385 -30.520878 -0.681857 0.779152 -3.519355 9.157742 6.311733 6.871014 14.797183 -8.592234 -14.249028 4.964952 10.308210 -0.165694 13.793606 -8.626710 3.090466 -14.082293 8.028685 -5.180257 -5.522931 5.525508 2.281465 -8.117338 24.166132 -13.967650 -8.445409 -9.010214 -11.678262 11.218720 10.189215 15.518515 -7.735965 -10.875369 -3.155023 0.412047 -4.020771 -10.286226 -4.429432 -9.209003 7.202631 4.478519 -7.529866 -0.173388 -0.139217 1.221936 
-0.147729 49.347713 -1.889152 8.539072 -1.728681 -4.244069 0.000000 0.000000 0.000000 -24.846041 3.199793 0.990297 33.299713 3.479371 -1.170813 -29.874924 -0.519865 0.618248 -3.519355 9.157742 6.311733 6.697919 14.951122 -8.867928 -14.354223 5.001291 10.144209 -0.193417 13.779888 -8.627323 3.090466 -14.082293 8.028685 -5.238899 -5.615162 5.080430 2.321306 -8.166315 24.109631 -13.937685 -8.224763 -9.019038 -11.659593 11.219891 10.219370 15.429407 -7.765034 -10.848701 -3.133101 0.403998 -4.013370 -10.309861 -4.441908 -9.239082 7.194717 4.489897 -7.520364 -0.146980 -0.143223 1.241218 
-0.172284 49.353394 -1.881155 8.431776 -1.767805 -4.217260 0.000000 0.000000 0.000000 -24.717798 3.158711 0.978710 33.522396 3.632412 -1.142812 -29.962980 -0.542137 0.666604 -3.519355 9.157742 6.311733 6.685187 14.947982 -8.988570 -14.423587 5.017053 10.141638 -0.331375 13.908691 -8.644132 3.090466 -14.082293 8.028685 -5.142216 -5.602242 5.091574 2.332805 -8.184290 24.148811 -13.755192 -8.476650 -9.003542 -11.562133 11.308033 10.307838 15.507646 -7.803922 -10.919687 -3.114285 0.401043 -4.067161 -10.214599 -4.374867 -9.208810 7.216319 4.462921 -7.637160 -0.210973 -0.136793 1.212511 
-0.190073 49.360962 -1.883995 8.392653 -1.758322 -4.185332 0.000000 0.000000 0.000000 -24.647797 3.098312 0.982175 33.498367 3.531883 -1.185230 -29.835396 -0.451304 0.563257 -3.519355 9.157742 6.311733 6.659676 14.955710 -9.048231 -14.440025 5.018393 10.025683 -0.378523 13.892273 -8.645133 3.090466 -14.082293 8.028685 -5.055415 -5.637706 5.110160 2.344565 -8.222328 24.168879 -13.893647 -8.849450 -8.990782 -11.480922 11.294008 10.300497 15.413500 -7.795012 -10.929107 -3.134989 0.396836 -3.984600 -10.174051 -4.354381 -9.168878 7.214354 4.431835 -7.667867 -0.112720 -0.124033 1.290224 
-0.200862 49.354340 -1.884326 8.353747 -1.797147 -4.160512 0.000000 0.000000 0.000000 -24.608252 3.081522 0.972874 33.593662 3.876936 -1.147674 -29.817884 -0.703913 0.792644 -3.519355 9.157742 6.311733 6.669777 14.968199 -9.137927 -14.484262 5.042553 10.160471 -0.579941 13.913586 -8.651394 3.090466 -14.082293 8.028685 -5.037716 -5.638198 5.289880 2.324429 -8.172606 24.227621 -13.714258 -8.707705 -8.988906 -11.492895 11.326351 10.279984 15.456242 -7.754685 -10.840899 -3.117701 0.406253 -4.054454 -10.123615 -4.324050 -9.167912 7.214783 4.451308 -7.715697 -0.207765 -0.145208 1.240641 
-0.215817 49.343929 -1.888253 8.383193 -1.825996 -4.077813 0.000000 0.000000 0.000000 -24.616726 3.028014 0.908824 33.438999 3.739716 -1.098163 -29.768694 -0.666107 0.800799 -3.519355 9.157742 6.311733 6.700283 14.986741 -9.123996 -14.460991 5.036384 10.039745 -0.695955 13.759325 -8.639684 3.090466 -14.082293 8.028685 -4.976290 -5.673849 5.248273 2.323640 -8.183793 24.176937 -13.719451 -8.816750 -8.981024 -11.577289 11.331375 10.227174 15.563365 -7.656274 -10.986875 -3.093089 0.412970 -4.167560 -10.143146 -4.304811 -9.168866 7.199163 4.477306 -7.763912 -0.275402 -0.131982 1.193613 
